<?xml version="1.0" standalone="no"?>
<!DOCTYPE svg PUBLIC "-//W3C//DTD SVG 20010904//EN"
 "http://www.w3.org/TR/2001/REC-SVG-20010904/DTD/svg10.dtd">
<svg version="1.0" xmlns="http://www.w3.org/2000/svg"
 width="564.000000pt" height="752.000000pt" viewBox="0 0 564.000000 752.000000"
 preserveAspectRatio="xMidYMid meet">
<metadata>
Created by potrace 1.16, written by Peter Selinger 2001-2019
</metadata>
<g transform="translate(0.000000,752.000000) scale(0.100000,-0.100000)"
fill="#ffffff" stroke="none">
<path d="M2725 6894 c-755 -41 -1420 -484 -1743 -1162 -118 -248 -192 -558
-192 -802 0 -83 -1 -87 -31 -116 -50 -47 -72 -100 -77 -186 -8 -134 46 -261
168 -398 43 -49 67 -89 95 -155 182 -445 547 -831 981 -1040 687 -330 1752
-413 2333 -181 130 53 220 107 305 187 89 83 121 129 112 164 -8 32 -37 39
-99 24 -29 -7 -86 -13 -128 -13 -85 -1 -119 16 -119 59 0 68 138 380 259 584
28 47 72 136 98 198 36 85 62 129 102 176 183 210 223 432 101 569 -40 46 -40
46 -40 130 0 99 -21 257 -50 388 -131 588 -547 1109 -1095 1371 -204 97 -394
154 -610 184 -113 15 -280 24 -370 19z m472 -138 c615 -130 1115 -525 1377
-1087 100 -215 176 -530 176 -731 l0 -58 -58 0 c-76 0 -146 -21 -253 -76 -78
-40 -243 -166 -293 -223 -20 -22 -20 -22 16 -58 l37 -36 74 69 c89 84 199 159
281 193 81 34 191 36 232 5 56 -41 69 -70 69 -148 0 -66 -4 -81 -44 -161 -72
-146 -233 -291 -438 -394 l-62 -31 18 -42 c9 -23 22 -43 27 -45 5 -2 54 22
108 52 55 30 101 53 102 52 2 -2 -19 -43 -47 -93 -94 -165 -216 -410 -247
-498 -44 -119 -50 -180 -24 -238 28 -63 73 -89 170 -97 l77 -6 -86 -57 c-192
-128 -435 -194 -806 -218 -313 -21 -766 23 -1093 105 -156 39 -417 132 -535
190 -316 155 -583 391 -767 675 -66 101 -143 240 -133 240 4 0 19 -8 33 -19
32 -22 173 -94 177 -89 10 11 35 69 35 80 0 8 -30 29 -67 47 -187 91 -360 247
-428 384 -66 134 -59 254 19 310 26 18 44 22 106 22 66 0 85 -5 154 -38 95
-45 184 -107 272 -190 36 -33 68 -56 72 -51 4 5 20 23 35 40 l28 31 -93 80
c-188 161 -332 233 -470 233 l-58 0 0 66 c0 205 77 515 184 739 249 522 700
897 1256 1044 196 52 280 61 525 57 189 -4 237 -8 342 -30z"/>
<path d="M2730 5474 c-120 -51 -204 -216 -204 -399 0 -236 128 -418 294 -418
69 0 121 26 177 86 79 85 116 191 116 332 0 186 -84 349 -205 400 -47 19 -132
19 -178 -1z m168 -113 c27 -21 51 -51 73 -97 29 -59 34 -79 37 -164 5 -112
-10 -178 -57 -253 -121 -189 -322 -47 -324 228 0 84 21 163 62 228 58 90 135
111 209 58z"/>
<path d="M3768 5419 c-49 -14 -126 -83 -149 -134 -53 -116 2 -268 115 -321 90
-42 192 -30 264 32 132 113 115 313 -33 400 -51 30 -137 40 -197 23z"/>
<path d="M1692 5384 c-124 -62 -172 -213 -106 -334 103 -190 379 -166 449 39
19 56 19 84 -1 150 -42 142 -207 212 -342 145z"/>
<path d="M3743 2340 c-12 -5 -30 -24 -40 -42 -16 -30 -18 -57 -15 -258 2 -124
7 -241 13 -261 13 -50 45 -69 118 -69 91 0 98 10 116 160 9 69 25 171 37 227
18 87 19 109 9 142 -14 50 -55 80 -130 97 -64 16 -78 16 -108 4z"/>
<path d="M1667 2286 c-73 -20 -101 -45 -109 -97 -9 -58 -9 -613 0 -663 6 -35
13 -43 57 -65 45 -24 60 -26 170 -26 l120 0 80 40 c93 47 129 90 147 178 10
45 9 67 0 105 -14 51 -71 119 -109 129 -30 7 -28 14 10 38 129 82 86 274 -77
346 -63 28 -215 36 -289 15z"/>
<path d="M2465 2291 c-107 -28 -191 -129 -229 -277 -39 -152 -29 -285 31 -405
59 -119 160 -179 298 -179 190 0 298 136 298 380 1 88 -35 243 -73 320 -56
110 -215 190 -325 161z m112 -327 c14 -48 17 -203 3 -238 -12 -31 -40 -34 -65
-6 -36 40 -29 207 11 268 20 31 36 24 51 -24z"/>
<path d="M3169 2287 c-101 -38 -163 -111 -206 -243 -50 -155 -41 -333 23 -442
67 -115 147 -163 279 -170 74 -4 89 -1 136 21 30 14 61 32 69 39 66 55 110
184 110 317 0 80 -24 198 -60 293 -50 134 -232 229 -351 185z m129 -333 c15
-59 12 -228 -5 -245 -20 -20 -60 -2 -72 32 -22 64 -10 194 24 245 23 35 38 26
53 -32z"/>
<path d="M3713 1661 c-41 -26 -53 -49 -53 -107 0 -56 29 -108 72 -130 37 -19
111 -11 156 16 52 32 62 122 22 187 -31 48 -143 68 -197 34z"/>
</g>
</svg>
